# File created by Blade
# Date/Time:  Tue Jan 27 20:02:37 2015
# Frame Rate: 120.000 fps
#------------------------------------------------------
:FULLY-SPECIFIED
:DEGREES
1715
root 7.761504 32.780676 4.404198 -2.330898 -2.221776 -11.452351
Spine -1.053685 5.081203 10.427937
Head 13.364659 -7.887799 -0.102600
LeftShoulder -15.812480 2.468799 25.606612
LeftArm -8.065669 -7.277948 -81.736028
LeftForeArm -10.535155 -0.000000 119.092871
LeftHand 11.162785 -0.000000 -11.054451
LeftHandThumb1 -26.253704 0.000000 33.147579
RightShoulder -20.242597 -19.237026 -22.646024
RightArm 8.119160 -20.288977 88.228290
RightForeArm -12.330566 -0.000000 9.072688
RightHand 18.295170 -0.000000 8.778736
RightHandThumb1 -24.326973 -0.000000 -32.862282
LeftUpLeg 10.258256 6.766177 2.152309
LeftLeg -3.550411 -0.000000 0.000000
LeftFoot -15.906355 14.351291 -14.358014
LeftToeBase 20.597481 -0.000000 -0.000000
RightUpLeg -31.305932 -38.851718 0.108260
RightLeg 136.614103 -0.000000 -0.000000
RightFoot 34.251798 -21.787064 18.066869
RightToeBase 22.523463 -0.000000 -0.000000
1716
root 7.765270 32.786956 4.411264 -2.238654 -2.176066 -11.552880
Spine -1.180629 5.194482 10.552277
Head 13.206401 -7.976695 -0.145349
LeftShoulder -15.795535 2.403978 25.562083
LeftArm -8.024530 -7.210437 -81.772372
LeftForeArm -10.435541 -0.000000 119.040697
LeftHand 11.176069 -0.000000 -10.960624
LeftHandThumb1 -26.253704 0.000000 33.147579
RightShoulder -20.304665 -19.314053 -22.554568
RightArm 8.206849 -20.293771 88.083492
RightForeArm -12.381676 -0.000000 8.932625
RightHand 18.335507 -0.000000 8.850287
RightHandThumb1 -24.326973 -0.000000 -32.862282
LeftUpLeg 10.238917 6.703743 2.240424
LeftLeg -3.677706 -0.000000 0.000000
LeftFoot -15.859862 14.338127 -14.381373
LeftToeBase 20.636704 -0.000000 -0.000000
RightUpLeg -30.994928 -39.326081 0.206299
RightLeg 137.772593 -0.000000 -0.000000
RightFoot 34.933834 -21.636078 17.663462
RightToeBase 21.367249 -0.000000 -0.000000
1717
root 7.772372 32.790254 4.413745 -2.132045 -2.182002 -11.597270
Spine -1.299450 5.333739 10.601653
Head 13.033677 -8.045166 -0.140875
LeftShoulder -15.775980 2.277407 25.578389
LeftArm -8.077170 -7.136316 -81.830595
LeftForeArm -10.126664 -0.000000 119.013521
LeftHand 11.105530 -0.000000 -10.562290
LeftHandThumb1 -26.253704 0.000000 33.147579
RightShoulder -20.335830 -19.315817 -22.483105
RightArm 8.236061 -20.280736 87.976581
RightForeArm -12.453797 -0.000000 8.785125
RightHand 18.393423 0.000000 8.817967
RightHandThumb1 -24.326973 -0.000000 -32.862282
LeftUpLeg 10.220661 6.479037 2.238467
LeftLeg -3.842367 -0.000000 0.000000
LeftFoot -15.797293 14.513872 -14.434826
LeftToeBase 20.625025 -0.000000 -0.000000
RightUpLeg -30.845933 -39.650176 0.333318
RightLeg 138.733857 -0.000000 -0.000000
RightFoot 35.038618 -21.724595 18.023852
RightToeBase 22.625535 -0.000000 -0.000000
1718
root 7.778801 32.794386 4.417747 -2.054482 -2.214395 -11.656809
Spine -1.369202 5.478158 10.681624
Head 12.840344 -8.086136 -0.142280
LeftShoulder -15.773931 2.203005 25.570055
LeftArm -8.070113 -7.185511 -81.863053
LeftForeArm -10.291213 0.000000 118.928651
LeftHand 11.156474 -0.000000 -10.817488
LeftHandThumb1 -26.253704 0.000000 33.147579
RightShoulder -20.370873 -19.269013 -22.441956
RightArm 8.214559 -20.237790 87.902159
RightForeArm -12.556955 0.000000 8.668390
RightHand 18.386799 0.000000 8.767352
RightHandThumb1 -24.326973 -0.000000 -32.862282
LeftUpLeg 10.197220 6.387049 2.268903
LeftLeg -3.921907 -0.000000 0.000000
LeftFoot -15.804867 14.602172 -14.502565
LeftToeBase 20.690628 -0.000000 -0.000000
RightUpLeg -30.684113 -40.021784 0.440790
RightLeg 139.403732 -0.000000 -0.000000
RightFoot 35.530410 -21.479680 17.585420
RightToeBase 22.475750 -0.000000 -0.000000
1719
root 7.784889 32.797137 4.418727 -1.966251 -2.295377 -11.715964
Spine -1.434254 5.650155 10.752564
Head 12.666006 -8.088089 -0.102597
LeftShoulder -15.786126 2.129969 25.593068
LeftArm -8.065246 -7.196108 -81.918350
LeftForeArm -10.230932 -0.000000 118.841521
LeftHand 11.166373 -0.000000 -10.831377
LeftHandThumb1 -26.253704 0.000000 33.147579
RightShoulder -20.388860 -19.252033 -22.394544
RightArm 8.222492 -20.138172 87.829858
RightForeArm -12.655359 -0.000000 8.588253
RightHand 18.376598 -0.000000 8.780799
RightHandThumb1 -24.326973 -0.000000 -32.862282
LeftUpLeg 10.151024 6.296278 2.290548
LeftLeg -3.967572 -0.000000 0.000000
LeftFoot -15.839514 14.749843 -14.542069
LeftToeBase 20.695423 -0.000000 -0.000000
RightUpLeg -30.658383 -40.380289 0.599986
RightLeg 139.825324 -0.000000 -0.000000
RightFoot 35.648357 -21.458790 17.437726
RightToeBase 22.456737 -0.000000 -0.000000
1720
root 7.791491 32.798966 4.423076 -1.937334 -2.421335 -11.748718
Spine -1.415448 5.818940 10.793941
Head 12.467889 -8.076002 -0.026212
LeftShoulder -15.821158 2.058862 25.627426
LeftArm -8.070927 -7.224500 -81.962475
LeftForeArm -10.240064 0.000000 118.752911
LeftHand 11.197521 -0.000000 -10.921484
LeftHandThumb1 -26.253704 0.000000 33.147579
RightShoulder -20.363251 -19.212467 -22.358791
RightArm 8.221821 -20.059671 87.766292
RightForeArm -12.638277 0.000000 8.537351
RightHand 18.295203 -0.000000 8.861676
RightHandThumb1 -24.326973 -0.000000 -32.862282
LeftUpLeg 10.190752 6.234938 2.292265
LeftLeg -4.041645 -0.000000 0.000000
LeftFoot -15.844057 14.920173 -14.566209
LeftToeBase 20.604267 -0.000000 -0.000000
RightUpLeg -30.655345 -40.680443 0.729777
RightLeg 140.002686 -0.000000 -0.000000
RightFoot 35.474108 -21.440092 17.349599
RightToeBase 22.483977 -0.000000 -0.000000
1721
root 7.797358 32.800298 4.426661 -1.922927 -2.547575 -11.790482
Spine -1.368603 5.976207 10.837440
Head 12.266363 -8.049687 0.091231
LeftShoulder -15.838324 1.960470 25.679329
LeftArm -8.123113 -7.254019 -81.984335
LeftForeArm -10.241081 -0.000000 118.697006
LeftHand 11.201854 -0.000000 -10.954842
LeftHandThumb1 -26.253704 0.000000 33.147579
RightShoulder -20.335390 -19.203151 -22.318897
RightArm 8.268940 -19.989788 87.708067
RightForeArm -12.551405 -0.000000 8.464660
RightHand 18.304918 -0.000000 8.878359
RightHandThumb1 -24.326973 -0.000000 -32.862282
LeftUpLeg 10.231707 6.158537 2.303317
LeftLeg -4.088759 -0.000000 0.000000
LeftFoot -15.888461 15.081329 -14.623767
LeftToeBase 20.679881 -0.000000 -0.000000
RightUpLeg -30.685296 -40.966860 0.850154
RightLeg 139.885355 -0.000000 -0.000000
RightFoot 35.371436 -21.490047 17.272391
RightToeBase 22.766157 -0.000000 -0.000000
